<mxfile host="app.diagrams.net" modified="2024-01-04T15:31:45.978Z" agent="Mozilla/5.0 (Macintosh; Intel Mac OS X 10_15_7) AppleWebKit/537.36 (KHTML, like Gecko) Chrome/120.0.0.0 Safari/537.36" etag="G8scJu5G5_VNlTrLv7q3" version="22.1.16" type="device" pages="2">
  <diagram name="Página-1" id="14yv1S5MAE9usC53n9--">
    <mxGraphModel dx="1137" dy="610" grid="1" gridSize="10" guides="1" tooltips="1" connect="1" arrows="1" fold="1" page="1" pageScale="1" pageWidth="827" pageHeight="1169" math="0" shadow="0">
      <root>
        <mxCell id="0" />
        <mxCell id="1" parent="0" />
        <mxCell id="LoHJFaIwm-5yKZR3ZHIj-9" value="" style="edgeStyle=orthogonalEdgeStyle;rounded=0;orthogonalLoop=1;jettySize=auto;html=1;" edge="1" parent="1" source="LoHJFaIwm-5yKZR3ZHIj-1" target="LoHJFaIwm-5yKZR3ZHIj-8">
          <mxGeometry relative="1" as="geometry" />
        </mxCell>
        <mxCell id="LoHJFaIwm-5yKZR3ZHIj-11" value="" style="edgeStyle=orthogonalEdgeStyle;rounded=0;orthogonalLoop=1;jettySize=auto;html=1;" edge="1" parent="1" source="LoHJFaIwm-5yKZR3ZHIj-1" target="LoHJFaIwm-5yKZR3ZHIj-10">
          <mxGeometry relative="1" as="geometry">
            <Array as="points">
              <mxPoint x="680" y="555" />
              <mxPoint x="640" y="555" />
            </Array>
          </mxGeometry>
        </mxCell>
        <mxCell id="LoHJFaIwm-5yKZR3ZHIj-1" value="Cliente" style="rounded=1;whiteSpace=wrap;html=1;" vertex="1" parent="1">
          <mxGeometry x="620" y="460" width="120" height="60" as="geometry" />
        </mxCell>
        <mxCell id="LoHJFaIwm-5yKZR3ZHIj-7" value="" style="edgeStyle=orthogonalEdgeStyle;rounded=0;orthogonalLoop=1;jettySize=auto;html=1;" edge="1" parent="1" source="LoHJFaIwm-5yKZR3ZHIj-2" target="LoHJFaIwm-5yKZR3ZHIj-6">
          <mxGeometry relative="1" as="geometry" />
        </mxCell>
        <mxCell id="LoHJFaIwm-5yKZR3ZHIj-13" value="" style="edgeStyle=orthogonalEdgeStyle;rounded=0;orthogonalLoop=1;jettySize=auto;html=1;" edge="1" parent="1" source="LoHJFaIwm-5yKZR3ZHIj-2" target="LoHJFaIwm-5yKZR3ZHIj-12">
          <mxGeometry relative="1" as="geometry" />
        </mxCell>
        <mxCell id="LoHJFaIwm-5yKZR3ZHIj-2" value="Producto&lt;br&gt;" style="rounded=1;whiteSpace=wrap;html=1;" vertex="1" parent="1">
          <mxGeometry x="240" y="460" width="120" height="60" as="geometry" />
        </mxCell>
        <mxCell id="LoHJFaIwm-5yKZR3ZHIj-15" value="" style="edgeStyle=orthogonalEdgeStyle;rounded=0;orthogonalLoop=1;jettySize=auto;html=1;" edge="1" parent="1" source="LoHJFaIwm-5yKZR3ZHIj-3" target="LoHJFaIwm-5yKZR3ZHIj-14">
          <mxGeometry relative="1" as="geometry" />
        </mxCell>
        <mxCell id="LoHJFaIwm-5yKZR3ZHIj-17" value="" style="edgeStyle=orthogonalEdgeStyle;rounded=0;orthogonalLoop=1;jettySize=auto;html=1;" edge="1" parent="1" source="LoHJFaIwm-5yKZR3ZHIj-3" target="LoHJFaIwm-5yKZR3ZHIj-16">
          <mxGeometry relative="1" as="geometry" />
        </mxCell>
        <mxCell id="LoHJFaIwm-5yKZR3ZHIj-19" value="" style="edgeStyle=orthogonalEdgeStyle;rounded=0;orthogonalLoop=1;jettySize=auto;html=1;" edge="1" parent="1" source="LoHJFaIwm-5yKZR3ZHIj-3" target="LoHJFaIwm-5yKZR3ZHIj-18">
          <mxGeometry relative="1" as="geometry" />
        </mxCell>
        <mxCell id="LoHJFaIwm-5yKZR3ZHIj-21" value="" style="edgeStyle=orthogonalEdgeStyle;rounded=0;orthogonalLoop=1;jettySize=auto;html=1;" edge="1" parent="1" source="LoHJFaIwm-5yKZR3ZHIj-3" target="LoHJFaIwm-5yKZR3ZHIj-20">
          <mxGeometry relative="1" as="geometry" />
        </mxCell>
        <mxCell id="LoHJFaIwm-5yKZR3ZHIj-26" value="" style="edgeStyle=orthogonalEdgeStyle;rounded=0;orthogonalLoop=1;jettySize=auto;html=1;" edge="1" parent="1" source="LoHJFaIwm-5yKZR3ZHIj-3" target="LoHJFaIwm-5yKZR3ZHIj-25">
          <mxGeometry relative="1" as="geometry" />
        </mxCell>
        <mxCell id="LoHJFaIwm-5yKZR3ZHIj-3" value="Venta&lt;br&gt;" style="rounded=1;whiteSpace=wrap;html=1;" vertex="1" parent="1">
          <mxGeometry x="440" y="340" width="120" height="60" as="geometry" />
        </mxCell>
        <mxCell id="LoHJFaIwm-5yKZR3ZHIj-6" value="ID" style="ellipse;whiteSpace=wrap;html=1;rounded=1;" vertex="1" parent="1">
          <mxGeometry x="180" y="585" width="50" height="40" as="geometry" />
        </mxCell>
        <mxCell id="LoHJFaIwm-5yKZR3ZHIj-8" value="DNI" style="ellipse;whiteSpace=wrap;html=1;rounded=1;" vertex="1" parent="1">
          <mxGeometry x="550" y="595" width="50" height="30" as="geometry" />
        </mxCell>
        <mxCell id="LoHJFaIwm-5yKZR3ZHIj-10" value="NOMBRE" style="ellipse;whiteSpace=wrap;html=1;rounded=1;" vertex="1" parent="1">
          <mxGeometry x="610" y="590" width="60" height="40" as="geometry" />
        </mxCell>
        <mxCell id="LoHJFaIwm-5yKZR3ZHIj-12" value="Descripcion" style="ellipse;whiteSpace=wrap;html=1;rounded=1;" vertex="1" parent="1">
          <mxGeometry x="250" y="585" width="80" height="40" as="geometry" />
        </mxCell>
        <mxCell id="LoHJFaIwm-5yKZR3ZHIj-14" value="ID" style="ellipse;whiteSpace=wrap;html=1;rounded=1;" vertex="1" parent="1">
          <mxGeometry x="430" y="140" width="80" height="30" as="geometry" />
        </mxCell>
        <mxCell id="LoHJFaIwm-5yKZR3ZHIj-16" value="Fecha" style="ellipse;whiteSpace=wrap;html=1;rounded=1;" vertex="1" parent="1">
          <mxGeometry x="490" y="180" width="80" height="30" as="geometry" />
        </mxCell>
        <mxCell id="LoHJFaIwm-5yKZR3ZHIj-18" value="Importe" style="ellipse;whiteSpace=wrap;html=1;rounded=1;" vertex="1" parent="1">
          <mxGeometry x="550" y="220" width="70" height="40" as="geometry" />
        </mxCell>
        <mxCell id="LoHJFaIwm-5yKZR3ZHIj-22" value="" style="edgeStyle=orthogonalEdgeStyle;rounded=0;orthogonalLoop=1;jettySize=auto;html=1;" edge="1" parent="1" source="LoHJFaIwm-5yKZR3ZHIj-20" target="LoHJFaIwm-5yKZR3ZHIj-2">
          <mxGeometry relative="1" as="geometry" />
        </mxCell>
        <mxCell id="LoHJFaIwm-5yKZR3ZHIj-20" value="Tiene" style="rhombus;whiteSpace=wrap;html=1;rounded=1;" vertex="1" parent="1">
          <mxGeometry x="260" y="330" width="80" height="80" as="geometry" />
        </mxCell>
        <mxCell id="LoHJFaIwm-5yKZR3ZHIj-23" value="N" style="text;html=1;strokeColor=none;fillColor=none;align=center;verticalAlign=middle;whiteSpace=wrap;rounded=0;" vertex="1" parent="1">
          <mxGeometry x="250" y="430" width="60" height="30" as="geometry" />
        </mxCell>
        <mxCell id="LoHJFaIwm-5yKZR3ZHIj-24" value="1" style="text;html=1;strokeColor=none;fillColor=none;align=center;verticalAlign=middle;whiteSpace=wrap;rounded=0;" vertex="1" parent="1">
          <mxGeometry x="400" y="340" width="60" height="30" as="geometry" />
        </mxCell>
        <mxCell id="LoHJFaIwm-5yKZR3ZHIj-27" value="" style="edgeStyle=orthogonalEdgeStyle;rounded=0;orthogonalLoop=1;jettySize=auto;html=1;" edge="1" parent="1" source="LoHJFaIwm-5yKZR3ZHIj-25" target="LoHJFaIwm-5yKZR3ZHIj-1">
          <mxGeometry relative="1" as="geometry" />
        </mxCell>
        <mxCell id="LoHJFaIwm-5yKZR3ZHIj-25" value="Genera" style="rhombus;whiteSpace=wrap;html=1;rounded=1;" vertex="1" parent="1">
          <mxGeometry x="640" y="330" width="80" height="80" as="geometry" />
        </mxCell>
        <mxCell id="LoHJFaIwm-5yKZR3ZHIj-28" value="1" style="text;html=1;strokeColor=none;fillColor=none;align=center;verticalAlign=middle;whiteSpace=wrap;rounded=0;" vertex="1" parent="1">
          <mxGeometry x="670" y="430" width="60" height="30" as="geometry" />
        </mxCell>
        <mxCell id="LoHJFaIwm-5yKZR3ZHIj-29" value="N" style="text;html=1;strokeColor=none;fillColor=none;align=center;verticalAlign=middle;whiteSpace=wrap;rounded=0;" vertex="1" parent="1">
          <mxGeometry x="545" y="340" width="60" height="30" as="geometry" />
        </mxCell>
      </root>
    </mxGraphModel>
  </diagram>
  <diagram id="2EFAl_H5SQhjwjpCPvIi" name="Página-2">
    <mxGraphModel dx="746" dy="400" grid="1" gridSize="10" guides="1" tooltips="1" connect="1" arrows="1" fold="1" page="1" pageScale="1" pageWidth="827" pageHeight="1169" math="0" shadow="0">
      <root>
        <mxCell id="0" />
        <mxCell id="1" parent="0" />
        <mxCell id="_QNrnZ17FzTBiaXxySmK-18" value="Cliente" style="shape=table;startSize=30;container=1;collapsible=1;childLayout=tableLayout;fixedRows=1;rowLines=0;fontStyle=1;align=center;resizeLast=1;html=1;" vertex="1" parent="1">
          <mxGeometry x="180" y="250" width="180" height="150" as="geometry" />
        </mxCell>
        <mxCell id="_QNrnZ17FzTBiaXxySmK-19" value="" style="shape=tableRow;horizontal=0;startSize=0;swimlaneHead=0;swimlaneBody=0;fillColor=none;collapsible=0;dropTarget=0;points=[[0,0.5],[1,0.5]];portConstraint=eastwest;top=0;left=0;right=0;bottom=1;" vertex="1" parent="_QNrnZ17FzTBiaXxySmK-18">
          <mxGeometry y="30" width="180" height="30" as="geometry" />
        </mxCell>
        <mxCell id="_QNrnZ17FzTBiaXxySmK-20" value="PK" style="shape=partialRectangle;connectable=0;fillColor=none;top=0;left=0;bottom=0;right=0;fontStyle=1;overflow=hidden;whiteSpace=wrap;html=1;" vertex="1" parent="_QNrnZ17FzTBiaXxySmK-19">
          <mxGeometry width="30" height="30" as="geometry">
            <mxRectangle width="30" height="30" as="alternateBounds" />
          </mxGeometry>
        </mxCell>
        <mxCell id="_QNrnZ17FzTBiaXxySmK-21" value="dni" style="shape=partialRectangle;connectable=0;fillColor=none;top=0;left=0;bottom=0;right=0;align=left;spacingLeft=6;fontStyle=5;overflow=hidden;whiteSpace=wrap;html=1;" vertex="1" parent="_QNrnZ17FzTBiaXxySmK-19">
          <mxGeometry x="30" width="150" height="30" as="geometry">
            <mxRectangle width="150" height="30" as="alternateBounds" />
          </mxGeometry>
        </mxCell>
        <mxCell id="_QNrnZ17FzTBiaXxySmK-22" value="" style="shape=tableRow;horizontal=0;startSize=0;swimlaneHead=0;swimlaneBody=0;fillColor=none;collapsible=0;dropTarget=0;points=[[0,0.5],[1,0.5]];portConstraint=eastwest;top=0;left=0;right=0;bottom=0;" vertex="1" parent="_QNrnZ17FzTBiaXxySmK-18">
          <mxGeometry y="60" width="180" height="30" as="geometry" />
        </mxCell>
        <mxCell id="_QNrnZ17FzTBiaXxySmK-23" value="" style="shape=partialRectangle;connectable=0;fillColor=none;top=0;left=0;bottom=0;right=0;editable=1;overflow=hidden;whiteSpace=wrap;html=1;" vertex="1" parent="_QNrnZ17FzTBiaXxySmK-22">
          <mxGeometry width="30" height="30" as="geometry">
            <mxRectangle width="30" height="30" as="alternateBounds" />
          </mxGeometry>
        </mxCell>
        <mxCell id="_QNrnZ17FzTBiaXxySmK-24" value="nombre" style="shape=partialRectangle;connectable=0;fillColor=none;top=0;left=0;bottom=0;right=0;align=left;spacingLeft=6;overflow=hidden;whiteSpace=wrap;html=1;" vertex="1" parent="_QNrnZ17FzTBiaXxySmK-22">
          <mxGeometry x="30" width="150" height="30" as="geometry">
            <mxRectangle width="150" height="30" as="alternateBounds" />
          </mxGeometry>
        </mxCell>
        <mxCell id="_QNrnZ17FzTBiaXxySmK-25" value="" style="shape=tableRow;horizontal=0;startSize=0;swimlaneHead=0;swimlaneBody=0;fillColor=none;collapsible=0;dropTarget=0;points=[[0,0.5],[1,0.5]];portConstraint=eastwest;top=0;left=0;right=0;bottom=0;" vertex="1" parent="_QNrnZ17FzTBiaXxySmK-18">
          <mxGeometry y="90" width="180" height="30" as="geometry" />
        </mxCell>
        <mxCell id="_QNrnZ17FzTBiaXxySmK-26" value="" style="shape=partialRectangle;connectable=0;fillColor=none;top=0;left=0;bottom=0;right=0;editable=1;overflow=hidden;whiteSpace=wrap;html=1;" vertex="1" parent="_QNrnZ17FzTBiaXxySmK-25">
          <mxGeometry width="30" height="30" as="geometry">
            <mxRectangle width="30" height="30" as="alternateBounds" />
          </mxGeometry>
        </mxCell>
        <mxCell id="_QNrnZ17FzTBiaXxySmK-27" value="apellido" style="shape=partialRectangle;connectable=0;fillColor=none;top=0;left=0;bottom=0;right=0;align=left;spacingLeft=6;overflow=hidden;whiteSpace=wrap;html=1;" vertex="1" parent="_QNrnZ17FzTBiaXxySmK-25">
          <mxGeometry x="30" width="150" height="30" as="geometry">
            <mxRectangle width="150" height="30" as="alternateBounds" />
          </mxGeometry>
        </mxCell>
        <mxCell id="_QNrnZ17FzTBiaXxySmK-28" value="" style="shape=tableRow;horizontal=0;startSize=0;swimlaneHead=0;swimlaneBody=0;fillColor=none;collapsible=0;dropTarget=0;points=[[0,0.5],[1,0.5]];portConstraint=eastwest;top=0;left=0;right=0;bottom=0;" vertex="1" parent="_QNrnZ17FzTBiaXxySmK-18">
          <mxGeometry y="120" width="180" height="30" as="geometry" />
        </mxCell>
        <mxCell id="_QNrnZ17FzTBiaXxySmK-29" value="" style="shape=partialRectangle;connectable=0;fillColor=none;top=0;left=0;bottom=0;right=0;editable=1;overflow=hidden;whiteSpace=wrap;html=1;" vertex="1" parent="_QNrnZ17FzTBiaXxySmK-28">
          <mxGeometry width="30" height="30" as="geometry">
            <mxRectangle width="30" height="30" as="alternateBounds" />
          </mxGeometry>
        </mxCell>
        <mxCell id="_QNrnZ17FzTBiaXxySmK-30" value="telefono" style="shape=partialRectangle;connectable=0;fillColor=none;top=0;left=0;bottom=0;right=0;align=left;spacingLeft=6;overflow=hidden;whiteSpace=wrap;html=1;" vertex="1" parent="_QNrnZ17FzTBiaXxySmK-28">
          <mxGeometry x="30" width="150" height="30" as="geometry">
            <mxRectangle width="150" height="30" as="alternateBounds" />
          </mxGeometry>
        </mxCell>
        <mxCell id="_QNrnZ17FzTBiaXxySmK-31" value="Vehiculo" style="shape=table;startSize=30;container=1;collapsible=1;childLayout=tableLayout;fixedRows=1;rowLines=0;fontStyle=1;align=center;resizeLast=1;html=1;whiteSpace=wrap;" vertex="1" parent="1">
          <mxGeometry x="410" y="50" width="180" height="150" as="geometry" />
        </mxCell>
        <mxCell id="_QNrnZ17FzTBiaXxySmK-32" value="" style="shape=tableRow;horizontal=0;startSize=0;swimlaneHead=0;swimlaneBody=0;fillColor=none;collapsible=0;dropTarget=0;points=[[0,0.5],[1,0.5]];portConstraint=eastwest;top=0;left=0;right=0;bottom=0;html=1;" vertex="1" parent="_QNrnZ17FzTBiaXxySmK-31">
          <mxGeometry y="30" width="180" height="30" as="geometry" />
        </mxCell>
        <mxCell id="_QNrnZ17FzTBiaXxySmK-33" value="PK" style="shape=partialRectangle;connectable=0;fillColor=none;top=0;left=0;bottom=0;right=0;fontStyle=1;overflow=hidden;html=1;whiteSpace=wrap;" vertex="1" parent="_QNrnZ17FzTBiaXxySmK-32">
          <mxGeometry width="60" height="30" as="geometry">
            <mxRectangle width="60" height="30" as="alternateBounds" />
          </mxGeometry>
        </mxCell>
        <mxCell id="_QNrnZ17FzTBiaXxySmK-34" value="patente" style="shape=partialRectangle;connectable=0;fillColor=none;top=0;left=0;bottom=0;right=0;align=left;spacingLeft=6;fontStyle=5;overflow=hidden;html=1;whiteSpace=wrap;" vertex="1" parent="_QNrnZ17FzTBiaXxySmK-32">
          <mxGeometry x="60" width="120" height="30" as="geometry">
            <mxRectangle width="120" height="30" as="alternateBounds" />
          </mxGeometry>
        </mxCell>
        <mxCell id="_QNrnZ17FzTBiaXxySmK-35" value="" style="shape=tableRow;horizontal=0;startSize=0;swimlaneHead=0;swimlaneBody=0;fillColor=none;collapsible=0;dropTarget=0;points=[[0,0.5],[1,0.5]];portConstraint=eastwest;top=0;left=0;right=0;bottom=1;html=1;" vertex="1" parent="_QNrnZ17FzTBiaXxySmK-31">
          <mxGeometry y="60" width="180" height="30" as="geometry" />
        </mxCell>
        <mxCell id="_QNrnZ17FzTBiaXxySmK-36" value="FK" style="shape=partialRectangle;connectable=0;fillColor=none;top=0;left=0;bottom=0;right=0;fontStyle=1;overflow=hidden;html=1;whiteSpace=wrap;" vertex="1" parent="_QNrnZ17FzTBiaXxySmK-35">
          <mxGeometry width="60" height="30" as="geometry">
            <mxRectangle width="60" height="30" as="alternateBounds" />
          </mxGeometry>
        </mxCell>
        <mxCell id="_QNrnZ17FzTBiaXxySmK-37" value="cliente_id" style="shape=partialRectangle;connectable=0;fillColor=none;top=0;left=0;bottom=0;right=0;align=left;spacingLeft=6;fontStyle=5;overflow=hidden;html=1;whiteSpace=wrap;" vertex="1" parent="_QNrnZ17FzTBiaXxySmK-35">
          <mxGeometry x="60" width="120" height="30" as="geometry">
            <mxRectangle width="120" height="30" as="alternateBounds" />
          </mxGeometry>
        </mxCell>
        <mxCell id="_QNrnZ17FzTBiaXxySmK-38" value="" style="shape=tableRow;horizontal=0;startSize=0;swimlaneHead=0;swimlaneBody=0;fillColor=none;collapsible=0;dropTarget=0;points=[[0,0.5],[1,0.5]];portConstraint=eastwest;top=0;left=0;right=0;bottom=0;html=1;" vertex="1" parent="_QNrnZ17FzTBiaXxySmK-31">
          <mxGeometry y="90" width="180" height="30" as="geometry" />
        </mxCell>
        <mxCell id="_QNrnZ17FzTBiaXxySmK-39" value="" style="shape=partialRectangle;connectable=0;fillColor=none;top=0;left=0;bottom=0;right=0;editable=1;overflow=hidden;html=1;whiteSpace=wrap;" vertex="1" parent="_QNrnZ17FzTBiaXxySmK-38">
          <mxGeometry width="60" height="30" as="geometry">
            <mxRectangle width="60" height="30" as="alternateBounds" />
          </mxGeometry>
        </mxCell>
        <mxCell id="_QNrnZ17FzTBiaXxySmK-40" value="marca" style="shape=partialRectangle;connectable=0;fillColor=none;top=0;left=0;bottom=0;right=0;align=left;spacingLeft=6;overflow=hidden;html=1;whiteSpace=wrap;" vertex="1" parent="_QNrnZ17FzTBiaXxySmK-38">
          <mxGeometry x="60" width="120" height="30" as="geometry">
            <mxRectangle width="120" height="30" as="alternateBounds" />
          </mxGeometry>
        </mxCell>
        <mxCell id="_QNrnZ17FzTBiaXxySmK-41" value="" style="shape=tableRow;horizontal=0;startSize=0;swimlaneHead=0;swimlaneBody=0;fillColor=none;collapsible=0;dropTarget=0;points=[[0,0.5],[1,0.5]];portConstraint=eastwest;top=0;left=0;right=0;bottom=0;html=1;" vertex="1" parent="_QNrnZ17FzTBiaXxySmK-31">
          <mxGeometry y="120" width="180" height="30" as="geometry" />
        </mxCell>
        <mxCell id="_QNrnZ17FzTBiaXxySmK-42" value="" style="shape=partialRectangle;connectable=0;fillColor=none;top=0;left=0;bottom=0;right=0;editable=1;overflow=hidden;html=1;whiteSpace=wrap;" vertex="1" parent="_QNrnZ17FzTBiaXxySmK-41">
          <mxGeometry width="60" height="30" as="geometry">
            <mxRectangle width="60" height="30" as="alternateBounds" />
          </mxGeometry>
        </mxCell>
        <mxCell id="_QNrnZ17FzTBiaXxySmK-43" value="modelo" style="shape=partialRectangle;connectable=0;fillColor=none;top=0;left=0;bottom=0;right=0;align=left;spacingLeft=6;overflow=hidden;html=1;whiteSpace=wrap;" vertex="1" parent="_QNrnZ17FzTBiaXxySmK-41">
          <mxGeometry x="60" width="120" height="30" as="geometry">
            <mxRectangle width="120" height="30" as="alternateBounds" />
          </mxGeometry>
        </mxCell>
        <mxCell id="_QNrnZ17FzTBiaXxySmK-44" value="" style="edgeStyle=entityRelationEdgeStyle;fontSize=12;html=1;endArrow=ERoneToMany;rounded=0;entryX=0;entryY=0.5;entryDx=0;entryDy=0;exitX=0.5;exitY=0;exitDx=0;exitDy=0;" edge="1" parent="1" source="_QNrnZ17FzTBiaXxySmK-18" target="_QNrnZ17FzTBiaXxySmK-35">
          <mxGeometry width="100" height="100" relative="1" as="geometry">
            <mxPoint x="230" y="235" as="sourcePoint" />
            <mxPoint x="370" y="110" as="targetPoint" />
            <Array as="points">
              <mxPoint x="250" y="220" />
              <mxPoint x="230" y="115" />
              <mxPoint x="220" y="135" />
            </Array>
          </mxGeometry>
        </mxCell>
        <mxCell id="_QNrnZ17FzTBiaXxySmK-72" value="" style="edgeStyle=entityRelationEdgeStyle;fontSize=12;html=1;endArrow=ERoneToMany;rounded=0;entryX=0.5;entryY=0;entryDx=0;entryDy=0;exitX=1;exitY=0.5;exitDx=0;exitDy=0;" edge="1" parent="1" source="_QNrnZ17FzTBiaXxySmK-35" target="_QNrnZ17FzTBiaXxySmK-59">
          <mxGeometry width="100" height="100" relative="1" as="geometry">
            <mxPoint x="610" y="120" as="sourcePoint" />
            <mxPoint x="750" y="235" as="targetPoint" />
            <Array as="points">
              <mxPoint x="280" y="225" />
              <mxPoint x="260" y="120" />
              <mxPoint x="650" y="250" />
              <mxPoint x="710" y="260" />
              <mxPoint x="750" y="225" />
              <mxPoint x="250" y="140" />
            </Array>
          </mxGeometry>
        </mxCell>
        <mxCell id="_QNrnZ17FzTBiaXxySmK-73" value="INT" style="text;html=1;strokeColor=none;fillColor=none;align=center;verticalAlign=middle;whiteSpace=wrap;rounded=0;" vertex="1" parent="1">
          <mxGeometry x="300" y="280" width="60" height="30" as="geometry" />
        </mxCell>
        <mxCell id="_QNrnZ17FzTBiaXxySmK-74" value="varchar(50)&amp;nbsp;" style="text;html=1;strokeColor=none;fillColor=none;align=center;verticalAlign=middle;whiteSpace=wrap;rounded=0;" vertex="1" parent="1">
          <mxGeometry x="300" y="310" width="60" height="30" as="geometry" />
        </mxCell>
        <mxCell id="_QNrnZ17FzTBiaXxySmK-75" value="varchar(50)&amp;nbsp;" style="text;html=1;strokeColor=none;fillColor=none;align=center;verticalAlign=middle;whiteSpace=wrap;rounded=0;" vertex="1" parent="1">
          <mxGeometry x="300" y="340" width="60" height="30" as="geometry" />
        </mxCell>
        <mxCell id="_QNrnZ17FzTBiaXxySmK-76" value="varchar(50)&amp;nbsp;" style="text;html=1;strokeColor=none;fillColor=none;align=center;verticalAlign=middle;whiteSpace=wrap;rounded=0;" vertex="1" parent="1">
          <mxGeometry x="300" y="370" width="60" height="30" as="geometry" />
        </mxCell>
        <mxCell id="_QNrnZ17FzTBiaXxySmK-77" value="varchar(15)&amp;nbsp;" style="text;html=1;strokeColor=none;fillColor=none;align=center;verticalAlign=middle;whiteSpace=wrap;rounded=0;" vertex="1" parent="1">
          <mxGeometry x="530" y="140" width="60" height="30" as="geometry" />
        </mxCell>
        <mxCell id="_QNrnZ17FzTBiaXxySmK-78" value="varchar(10)&amp;nbsp;" style="text;html=1;strokeColor=none;fillColor=none;align=center;verticalAlign=middle;whiteSpace=wrap;rounded=0;" vertex="1" parent="1">
          <mxGeometry x="530" y="80" width="60" height="30" as="geometry" />
        </mxCell>
        <mxCell id="_QNrnZ17FzTBiaXxySmK-79" value="INT" style="text;html=1;strokeColor=none;fillColor=none;align=center;verticalAlign=middle;whiteSpace=wrap;rounded=0;" vertex="1" parent="1">
          <mxGeometry x="540" y="110" width="60" height="30" as="geometry" />
        </mxCell>
        <mxCell id="_QNrnZ17FzTBiaXxySmK-80" value="varchar(15)&amp;nbsp;" style="text;html=1;strokeColor=none;fillColor=none;align=center;verticalAlign=middle;whiteSpace=wrap;rounded=0;" vertex="1" parent="1">
          <mxGeometry x="530" y="170" width="60" height="30" as="geometry" />
        </mxCell>
        <mxCell id="_QNrnZ17FzTBiaXxySmK-81" value="INT" style="text;html=1;strokeColor=none;fillColor=none;align=center;verticalAlign=middle;whiteSpace=wrap;rounded=0;" vertex="1" parent="1">
          <mxGeometry x="800" y="310" width="60" height="30" as="geometry" />
        </mxCell>
        <mxCell id="_QNrnZ17FzTBiaXxySmK-82" value="varchar(10)&amp;nbsp;" style="text;html=1;strokeColor=none;fillColor=none;align=center;verticalAlign=middle;whiteSpace=wrap;rounded=0;" vertex="1" parent="1">
          <mxGeometry x="790" y="340" width="60" height="30" as="geometry" />
        </mxCell>
        <mxCell id="_QNrnZ17FzTBiaXxySmK-83" value="timestamp" style="text;html=1;strokeColor=none;fillColor=none;align=center;verticalAlign=middle;whiteSpace=wrap;rounded=0;" vertex="1" parent="1">
          <mxGeometry x="790" y="370" width="60" height="30" as="geometry" />
        </mxCell>
        <mxCell id="_QNrnZ17FzTBiaXxySmK-84" value="varchar(50)&amp;nbsp;" style="text;html=1;strokeColor=none;fillColor=none;align=center;verticalAlign=middle;whiteSpace=wrap;rounded=0;" vertex="1" parent="1">
          <mxGeometry x="790" y="400" width="60" height="30" as="geometry" />
        </mxCell>
        <mxCell id="_QNrnZ17FzTBiaXxySmK-59" value="Revision" style="shape=table;startSize=30;container=1;collapsible=1;childLayout=tableLayout;fixedRows=1;rowLines=0;fontStyle=1;align=center;resizeLast=1;html=1;whiteSpace=wrap;" vertex="1" parent="1">
          <mxGeometry x="620" y="280" width="230" height="180" as="geometry">
            <mxRectangle x="620" y="280" width="90" height="30" as="alternateBounds" />
          </mxGeometry>
        </mxCell>
        <mxCell id="_QNrnZ17FzTBiaXxySmK-60" value="" style="shape=tableRow;horizontal=0;startSize=0;swimlaneHead=0;swimlaneBody=0;fillColor=none;collapsible=0;dropTarget=0;points=[[0,0.5],[1,0.5]];portConstraint=eastwest;top=0;left=0;right=0;bottom=0;html=1;" vertex="1" parent="_QNrnZ17FzTBiaXxySmK-59">
          <mxGeometry y="30" width="230" height="30" as="geometry" />
        </mxCell>
        <mxCell id="_QNrnZ17FzTBiaXxySmK-61" value="PK" style="shape=partialRectangle;connectable=0;fillColor=none;top=0;left=0;bottom=0;right=0;fontStyle=1;overflow=hidden;html=1;whiteSpace=wrap;" vertex="1" parent="_QNrnZ17FzTBiaXxySmK-60">
          <mxGeometry width="60" height="30" as="geometry">
            <mxRectangle width="60" height="30" as="alternateBounds" />
          </mxGeometry>
        </mxCell>
        <mxCell id="_QNrnZ17FzTBiaXxySmK-62" value="id" style="shape=partialRectangle;connectable=0;fillColor=none;top=0;left=0;bottom=0;right=0;align=left;spacingLeft=6;fontStyle=5;overflow=hidden;html=1;whiteSpace=wrap;" vertex="1" parent="_QNrnZ17FzTBiaXxySmK-60">
          <mxGeometry x="60" width="170" height="30" as="geometry">
            <mxRectangle width="170" height="30" as="alternateBounds" />
          </mxGeometry>
        </mxCell>
        <mxCell id="_QNrnZ17FzTBiaXxySmK-63" value="" style="shape=tableRow;horizontal=0;startSize=0;swimlaneHead=0;swimlaneBody=0;fillColor=none;collapsible=0;dropTarget=0;points=[[0,0.5],[1,0.5]];portConstraint=eastwest;top=0;left=0;right=0;bottom=1;html=1;" vertex="1" parent="_QNrnZ17FzTBiaXxySmK-59">
          <mxGeometry y="60" width="230" height="30" as="geometry" />
        </mxCell>
        <mxCell id="_QNrnZ17FzTBiaXxySmK-64" value="FK" style="shape=partialRectangle;connectable=0;fillColor=none;top=0;left=0;bottom=0;right=0;fontStyle=1;overflow=hidden;html=1;whiteSpace=wrap;" vertex="1" parent="_QNrnZ17FzTBiaXxySmK-63">
          <mxGeometry width="60" height="30" as="geometry">
            <mxRectangle width="60" height="30" as="alternateBounds" />
          </mxGeometry>
        </mxCell>
        <mxCell id="_QNrnZ17FzTBiaXxySmK-65" value="vehiculo_id" style="shape=partialRectangle;connectable=0;fillColor=none;top=0;left=0;bottom=0;right=0;align=left;spacingLeft=6;fontStyle=5;overflow=hidden;html=1;whiteSpace=wrap;" vertex="1" parent="_QNrnZ17FzTBiaXxySmK-63">
          <mxGeometry x="60" width="170" height="30" as="geometry">
            <mxRectangle width="170" height="30" as="alternateBounds" />
          </mxGeometry>
        </mxCell>
        <mxCell id="_QNrnZ17FzTBiaXxySmK-66" value="" style="shape=tableRow;horizontal=0;startSize=0;swimlaneHead=0;swimlaneBody=0;fillColor=none;collapsible=0;dropTarget=0;points=[[0,0.5],[1,0.5]];portConstraint=eastwest;top=0;left=0;right=0;bottom=0;html=1;" vertex="1" parent="_QNrnZ17FzTBiaXxySmK-59">
          <mxGeometry y="90" width="230" height="30" as="geometry" />
        </mxCell>
        <mxCell id="_QNrnZ17FzTBiaXxySmK-67" value="" style="shape=partialRectangle;connectable=0;fillColor=none;top=0;left=0;bottom=0;right=0;editable=1;overflow=hidden;html=1;whiteSpace=wrap;" vertex="1" parent="_QNrnZ17FzTBiaXxySmK-66">
          <mxGeometry width="60" height="30" as="geometry">
            <mxRectangle width="60" height="30" as="alternateBounds" />
          </mxGeometry>
        </mxCell>
        <mxCell id="_QNrnZ17FzTBiaXxySmK-68" value="fecha" style="shape=partialRectangle;connectable=0;fillColor=none;top=0;left=0;bottom=0;right=0;align=left;spacingLeft=6;overflow=hidden;html=1;whiteSpace=wrap;" vertex="1" parent="_QNrnZ17FzTBiaXxySmK-66">
          <mxGeometry x="60" width="170" height="30" as="geometry">
            <mxRectangle width="170" height="30" as="alternateBounds" />
          </mxGeometry>
        </mxCell>
        <mxCell id="_QNrnZ17FzTBiaXxySmK-69" value="" style="shape=tableRow;horizontal=0;startSize=0;swimlaneHead=0;swimlaneBody=0;fillColor=none;collapsible=0;dropTarget=0;points=[[0,0.5],[1,0.5]];portConstraint=eastwest;top=0;left=0;right=0;bottom=0;html=1;" vertex="1" parent="_QNrnZ17FzTBiaXxySmK-59">
          <mxGeometry y="120" width="230" height="30" as="geometry" />
        </mxCell>
        <mxCell id="_QNrnZ17FzTBiaXxySmK-70" value="" style="shape=partialRectangle;connectable=0;fillColor=none;top=0;left=0;bottom=0;right=0;editable=1;overflow=hidden;html=1;whiteSpace=wrap;" vertex="1" parent="_QNrnZ17FzTBiaXxySmK-69">
          <mxGeometry width="60" height="30" as="geometry">
            <mxRectangle width="60" height="30" as="alternateBounds" />
          </mxGeometry>
        </mxCell>
        <mxCell id="_QNrnZ17FzTBiaXxySmK-71" value="descripcion" style="shape=partialRectangle;connectable=0;fillColor=none;top=0;left=0;bottom=0;right=0;align=left;spacingLeft=6;overflow=hidden;html=1;whiteSpace=wrap;" vertex="1" parent="_QNrnZ17FzTBiaXxySmK-69">
          <mxGeometry x="60" width="170" height="30" as="geometry">
            <mxRectangle width="170" height="30" as="alternateBounds" />
          </mxGeometry>
        </mxCell>
        <mxCell id="OgUXEScKWsbd80sN5xUZ-4" value="" style="shape=tableRow;horizontal=0;startSize=0;swimlaneHead=0;swimlaneBody=0;fillColor=none;collapsible=0;dropTarget=0;points=[[0,0.5],[1,0.5]];portConstraint=eastwest;top=0;left=0;right=0;bottom=0;html=1;" vertex="1" parent="_QNrnZ17FzTBiaXxySmK-59">
          <mxGeometry y="150" width="230" height="30" as="geometry" />
        </mxCell>
        <mxCell id="OgUXEScKWsbd80sN5xUZ-5" value="" style="shape=partialRectangle;connectable=0;fillColor=none;top=0;left=0;bottom=0;right=0;editable=1;overflow=hidden;html=1;whiteSpace=wrap;" vertex="1" parent="OgUXEScKWsbd80sN5xUZ-4">
          <mxGeometry width="60" height="30" as="geometry">
            <mxRectangle width="60" height="30" as="alternateBounds" />
          </mxGeometry>
        </mxCell>
        <mxCell id="OgUXEScKWsbd80sN5xUZ-6" value="kilometros" style="shape=partialRectangle;connectable=0;fillColor=none;top=0;left=0;bottom=0;right=0;align=left;spacingLeft=6;overflow=hidden;html=1;whiteSpace=wrap;" vertex="1" parent="OgUXEScKWsbd80sN5xUZ-4">
          <mxGeometry x="60" width="170" height="30" as="geometry">
            <mxRectangle width="170" height="30" as="alternateBounds" />
          </mxGeometry>
        </mxCell>
        <mxCell id="OgUXEScKWsbd80sN5xUZ-7" value="INT" style="text;html=1;strokeColor=none;fillColor=none;align=center;verticalAlign=middle;whiteSpace=wrap;rounded=0;" vertex="1" parent="1">
          <mxGeometry x="790" y="430" width="60" height="30" as="geometry" />
        </mxCell>
      </root>
    </mxGraphModel>
  </diagram>
</mxfile>
